<svg width="1800" height="1203" viewBox="0 0 1800 1203" fill="none" xmlns="http://www.w3.org/2000/svg">
<g clip-path="url(#clip0_75_93)">
<path fill-rule="evenodd" clip-rule="evenodd" d="M8.71948 43.6808C0 60.7937 0 83.1958 0 128V409.037C0 467.322 0 496.465 12.1582 515.92C22.8064 532.959 39.4763 545.367 58.8541 550.678C80.98 556.742 108.897 548.379 164.731 531.653L454 445C494 436 521.206 445 538.319 453.719C553.372 461.389 565.611 473.628 573.281 488.681C582 505.794 582 528.196 582 573V1075C582 1119.8 582 1142.21 590.719 1159.32C598.389 1174.37 610.628 1186.61 625.681 1194.28C642.794 1203 665.196 1203 710 1203H1672C1716.8 1203 1739.21 1203 1756.32 1194.28C1771.37 1186.61 1783.61 1174.37 1791.28 1159.32C1800 1142.21 1800 1119.8 1800 1075V128C1800 83.1958 1800 60.7937 1791.28 43.6808C1783.61 28.6278 1771.37 16.3893 1756.32 8.71948C1739.21 0 1716.8 0 1672 0H128C83.1958 0 60.7937 0 43.6808 8.71948C28.6278 16.3893 16.3893 28.6278 8.71948 43.6808Z" fill="#F7F8F8"/>
<path d="M1 1081.17C1 1123.47 1 1144.61 9.16515 1160.77C16.3474 1174.98 27.8078 1186.53 41.9038 1193.77C57.9288 1202 78.9067 1202 120.862 1202H425.175C463.225 1202 482.25 1202 497.212 1195.66C516.335 1187.56 531.557 1172.34 539.66 1153.21C546 1138.25 546 1119.22 546 1081.17V607.313C546 565.02 546 543.874 537.835 527.72C530.653 513.511 519.192 501.958 505.096 494.718C498.241 491.197 490.479 489.182 480.555 488.03C474.167 487.287 470.972 486.916 456.819 487.016C447.804 487.08 428.197 488.826 419.311 490.358C405.36 492.762 394.896 495.921 373.969 502.241L155.258 568.284L90.9468 588.308C58.6488 598.365 42.4997 603.393 30.5389 613.116C19.9791 621.7 11.7834 632.835 6.72711 645.47C1 659.78 1 676.694 1 710.521V1081.17Z" fill="#F7F8F8"/>
<path d="M511.979 169.026C524.61 154.164 534.882 155.696 546.098 142.659C543.247 150.742 543.858 164.291 541.288 177.746C537.084 199.749 517.736 212.696 504.103 216.827C487.96 221.719 502.204 180.53 511.979 169.026Z" fill="url(#paint0_linear_75_93)" fill-opacity="0.2"/>
<path d="M490.954 116.29C503.584 101.428 513.856 102.959 525.073 89.923C522.221 98.0067 522.833 111.555 520.262 125.01C516.059 147.013 496.711 159.959 483.078 164.091C466.934 168.983 481.178 127.794 490.954 116.29Z" fill="url(#paint1_linear_75_93)" fill-opacity="0.2"/>
<path d="M563.35 193.401C553.649 174.074 559.759 164.126 551.311 147.031C558.361 153.397 572.559 158.508 585.255 166.861C606.018 180.521 610.783 205.967 609.01 221.781C606.911 240.508 570.858 208.361 563.35 193.401Z" fill="url(#paint2_linear_75_93)" fill-opacity="0.2"/>
<path d="M580.879 154.38C564.336 145.851 562.779 134.196 548.23 126.565C556.096 126.852 567.76 121.496 580.239 119.619C600.645 116.549 617.407 133.017 624.857 146.35C633.68 162.139 593.683 160.982 580.879 154.38Z" fill="url(#paint3_linear_75_93)" fill-opacity="0.2"/>
<path d="M571.903 99.7041C553.572 96.7432 548.946 86.2008 532.79 83.4747C540.498 81.3185 550.382 72.6547 561.985 67.0289C580.962 57.8279 601.629 68.2289 612.422 78.5389C625.204 90.7487 586.091 101.997 571.903 99.7041Z" fill="url(#paint4_linear_75_93)" fill-opacity="0.2"/>
<path d="M467.211 74.5038C481.461 60.9066 492.169 63.289 504.811 51.3744C501.289 59.1104 501.056 72.5332 497.481 85.5936C491.635 106.951 470.443 118.089 455.833 121.01C438.533 124.47 456.183 85.0275 467.211 74.5038Z" fill="url(#paint5_linear_75_93)" fill-opacity="0.2"/>
<path d="M467.247 74.373C481.497 60.7757 492.205 63.1582 504.847 51.2436C501.325 58.9796 501.092 72.4024 497.517 85.4628C491.671 106.821 470.479 117.958 455.869 120.879C438.569 124.339 456.219 84.8966 467.247 74.373Z" fill="url(#paint6_linear_75_93)" fill-opacity="0.2"/>
<path d="M551.529 22.7781C532.725 26.696 528.171 18.6795 511.6 22.0249C519.573 17.2507 529.914 5.70451 541.964 -3.67209C561.672 -19.0054 582.733 -16.9288 593.638 -11.3595C606.551 -4.76465 566.083 19.7462 551.529 22.7781Z" fill="url(#paint7_linear_75_93)" fill-opacity="0.2"/>
<path d="M549.387 144.279C549.529 144.765 549.302 145.317 548.85 145.586C548.304 145.912 547.649 145.698 547.439 145.127L526.432 87.7721L513.637 56.5048L497.142 25.7753L473.31 -15.1781L448.26 -59.5998L421.562 -112.355C421.306 -112.861 421.517 -113.524 422.031 -113.83C422.518 -114.121 423.105 -113.984 423.37 -113.519L451.245 -64.5183L478.557 -19.3377L504.192 22.3709L521.445 56.5657L536.056 98.2242L549.387 144.279Z" fill="url(#paint8_linear_75_93)" fill-opacity="0.2"/>
<path d="M1726.63 999.682C1713.06 1013.69 1702.91 1011.5 1690.87 1023.78C1694.24 1015.9 1694.51 1002.34 1697.95 989.077C1703.57 967.394 1723.72 955.731 1737.59 952.493C1754.02 948.66 1737.13 988.837 1726.63 999.682Z" fill="url(#paint9_linear_75_93)" fill-opacity="0.2"/>
<path d="M1744.19 1053.67C1730.62 1067.68 1720.47 1065.49 1708.43 1077.77C1711.8 1069.89 1712.07 1056.33 1715.51 1043.07C1721.13 1021.38 1741.28 1009.72 1755.15 1006.48C1771.58 1002.65 1754.69 1042.83 1744.19 1053.67Z" fill="url(#paint10_linear_75_93)" fill-opacity="0.2"/>
<path d="M1676.95 972.022C1685.38 991.937 1678.63 1001.47 1685.96 1019.08C1679.33 1012.26 1665.5 1006.24 1653.37 997.083C1633.54 982.104 1630.44 956.402 1633.23 940.737C1636.54 922.185 1670.43 956.606 1676.95 972.022Z" fill="url(#paint11_linear_75_93)" fill-opacity="0.2"/>
<path d="M1656.93 1009.82C1672.88 1019.41 1673.68 1031.14 1687.7 1039.7C1679.87 1038.9 1667.88 1043.49 1655.31 1044.55C1634.75 1046.29 1619.09 1028.77 1612.52 1014.98C1604.74 998.651 1644.58 1002.4 1656.93 1009.82Z" fill="url(#paint12_linear_75_93)" fill-opacity="0.2"/>
<path d="M1662.33 1064.97C1680.43 1069.11 1684.36 1079.93 1700.31 1083.7C1692.48 1085.35 1682.05 1093.35 1670.11 1098.22C1650.57 1106.16 1630.63 1094.44 1620.52 1083.45C1608.56 1070.44 1648.32 1061.76 1662.33 1064.97Z" fill="url(#paint13_linear_75_93)" fill-opacity="0.2"/>
<path d="M1765.17 1096.91C1750.06 1109.55 1739.53 1106.48 1726.14 1117.55C1730.16 1110.06 1731.27 1096.68 1735.68 1083.88C1742.9 1062.95 1764.77 1053.21 1779.54 1051.24C1797.03 1048.91 1776.85 1087.13 1765.17 1096.91Z" fill="url(#paint14_linear_75_93)" fill-opacity="0.2"/>
<path d="M1765.12 1097.04C1750.02 1109.68 1739.49 1106.61 1726.1 1117.68C1730.12 1110.19 1731.22 1096.81 1735.64 1084.01C1742.86 1063.07 1764.73 1053.34 1779.5 1051.37C1796.98 1049.04 1776.81 1087.25 1765.12 1097.04Z" fill="url(#paint15_linear_75_93)" fill-opacity="0.2"/>
<path d="M1677.67 1143.05C1696.69 1140.36 1700.71 1148.66 1717.46 1146.4C1709.2 1150.64 1698.13 1161.49 1685.49 1170.07C1664.83 1184.09 1643.95 1180.65 1633.43 1174.38C1620.97 1166.96 1662.95 1145.13 1677.67 1143.05Z" fill="url(#paint16_linear_75_93)" fill-opacity="0.2"/>
<path d="M1687.7 1021.95C1687.59 1021.45 1687.85 1020.92 1688.32 1020.68C1688.88 1020.39 1689.52 1020.64 1689.69 1021.23L1706.93 1079.82L1717.67 1111.86L1732.14 1143.59L1753.26 1186.01L1775.37 1231.96L1798.58 1286.34C1798.81 1286.86 1798.55 1287.51 1798.02 1287.78C1797.52 1288.04 1796.94 1287.87 1796.71 1287.38L1772.07 1236.68L1747.75 1189.82L1724.88 1146.53L1709.88 1111.29L1698.01 1068.77L1687.7 1021.95Z" fill="url(#paint17_linear_75_93)" fill-opacity="0.2"/>
<path d="M1598.51 80.9194C1614.46 92.1411 1613.87 102.511 1627.88 112.49C1619.57 110.389 1606.13 112.233 1592.5 110.902C1570.2 108.723 1555.55 90.6373 1550.19 77.4385C1543.84 61.8085 1586.16 72.2347 1598.51 80.9194Z" fill="url(#paint18_linear_75_93)" fill-opacity="0.2"/>
<path d="M1649.1 55.1699C1665.06 66.3908 1664.47 76.7602 1678.47 86.7401C1670.16 84.638 1656.73 86.4838 1643.1 85.1511C1620.8 82.9731 1606.14 64.8877 1600.78 51.6881C1594.44 36.0578 1636.76 46.484 1649.1 55.1699Z" fill="url(#paint19_linear_75_93)" fill-opacity="0.2"/>
<path d="M1578.92 134.301C1597.28 122.877 1607.75 128.053 1624 118.08C1618.3 125.682 1614.51 140.287 1607.35 153.693C1595.64 175.615 1570.74 182.683 1554.83 182.36C1535.99 181.978 1564.71 143.142 1578.92 134.301Z" fill="url(#paint20_linear_75_93)" fill-opacity="0.2"/>
<path d="M1619.38 148.195C1626.36 130.943 1637.83 128.329 1644.1 113.145C1644.53 121.004 1650.93 132.13 1653.94 144.386C1658.86 164.427 1643.99 182.622 1631.39 191.257C1616.47 201.484 1613.97 161.548 1619.38 148.195Z" fill="url(#paint21_linear_75_93)" fill-opacity="0.2"/>
<path d="M1673.01 134.268C1674.28 115.744 1684.36 110.174 1685.6 93.8374C1688.45 101.316 1697.98 110.368 1704.64 121.41C1715.54 139.468 1707.06 160.997 1697.78 172.687C1686.79 186.529 1672.02 148.606 1673.01 134.268Z" fill="url(#paint22_linear_75_93)" fill-opacity="0.2"/>
<path d="M1688.55 27.7135C1703.39 40.6628 1702 51.5435 1715.01 63.046C1706.99 60.2446 1693.6 61.2367 1680.27 58.869C1658.47 54.9959 1645.44 34.9091 1641.2 20.6265C1636.18 3.71385 1677.06 17.6917 1688.55 27.7135Z" fill="url(#paint23_linear_75_93)" fill-opacity="0.2"/>
<path d="M1688.68 27.7379C1703.52 40.6872 1702.13 51.5679 1715.15 63.0705C1707.12 60.269 1693.73 61.2611 1680.4 58.8934C1658.6 55.0203 1645.58 34.9336 1641.33 20.6509C1636.31 3.73827 1677.2 17.7161 1688.68 27.7379Z" fill="url(#paint24_linear_75_93)" fill-opacity="0.2"/>
<path d="M1747.75 106.96C1742.14 88.5925 1749.7 83.3254 1744.86 67.1293C1750.34 74.6327 1762.78 83.877 1773.22 95.0214C1790.29 113.247 1790.14 134.41 1785.59 145.778C1780.2 159.239 1752.1 121.177 1747.75 106.96Z" fill="url(#paint25_linear_75_93)" fill-opacity="0.2"/>
<path d="M1626.57 115.913C1626.09 116.098 1625.52 115.922 1625.21 115.498C1624.84 114.983 1624.99 114.312 1625.54 114.051L1680.74 87.8969L1710.71 72.3027L1739.81 53.0722L1778.41 25.6026L1820.37 -3.39604L1870.46 -34.7963C1870.94 -35.0975 1871.62 -34.9481 1871.98 -34.4648C1872.31 -34.0061 1872.23 -33.4091 1871.79 -33.1028L1825.54 -0.87269L1783.04 30.448L1743.84 59.7824L1711.36 80.0835L1671.21 98.4345L1626.57 115.913Z" fill="url(#paint26_linear_75_93)" fill-opacity="0.2"/>
<path d="M712.678 416.702C694.461 409.734 692.489 399.537 676.464 393.295C685.035 393.295 697.609 388.213 711.154 386.162C733.302 382.809 751.946 396.749 760.377 408.231C770.359 421.829 726.778 422.095 712.678 416.702Z" fill="url(#paint27_linear_75_93)" fill-opacity="0.2"/>
<path d="M669.939 454.07C651.722 447.102 649.75 436.905 633.725 430.663C642.297 430.664 654.87 425.581 668.414 423.53C690.562 420.176 709.207 434.116 717.638 445.599C727.621 459.197 684.039 459.464 669.939 454.07Z" fill="url(#paint28_linear_75_93)" fill-opacity="0.2"/>
<path d="M718.58 360.148C703.58 375.725 692.166 373.272 678.854 386.925C682.513 378.158 682.611 363.069 686.266 348.317C692.242 324.193 714.654 311.236 730.158 307.649C748.517 303.4 730.191 348.092 718.58 360.148Z" fill="url(#paint29_linear_75_93)" fill-opacity="0.2"/>
<path d="M675.951 356.596C673.409 375.034 662.935 380.379 660.578 396.638C658.232 389.124 649.302 379.906 643.381 368.762C633.699 350.538 643.654 329.253 653.75 317.793C665.706 304.221 677.918 342.326 675.951 356.596Z" fill="url(#paint30_linear_75_93)" fill-opacity="0.2"/>
<path d="M627.373 383.246C630.677 401.518 622.274 409.388 625.076 425.53C620.479 418.979 609.021 412.539 599.856 403.467C584.868 388.631 587.803 365.682 593.936 352.073C601.199 335.958 624.816 369.104 627.373 383.246Z" fill="url(#paint31_linear_75_93)" fill-opacity="0.2"/>
<path d="M638.428 490.359C620.865 481.443 619.551 470.552 604.109 462.592C612.576 463.341 625.313 459.097 638.818 458.124C660.905 456.534 678.457 472.814 686.07 485.621C695.088 500.786 652.02 497.259 638.428 490.359Z" fill="url(#paint32_linear_75_93)" fill-opacity="0.2"/>
<path d="M638.292 490.368C620.73 481.452 619.415 470.561 603.974 462.601C612.441 463.35 625.177 459.106 638.683 458.133C660.769 456.543 678.321 472.823 685.935 485.63C694.952 500.795 651.884 497.268 638.292 490.368Z" fill="url(#paint33_linear_75_93)" fill-opacity="0.2"/>
<path d="M561.603 428.045C571.552 444.475 565.507 451.437 574.173 465.951C567.019 460.02 552.691 454.108 539.84 445.863C518.825 432.377 513.778 411.824 515.403 399.688C517.328 385.316 553.903 415.328 561.603 428.045Z" fill="url(#paint34_linear_75_93)" fill-opacity="0.2"/>
<g clip-path="url(#clip1_75_93)">
<path d="M680.309 386.901C680.55 386.765 680.903 386.784 681.145 386.947C681.438 387.143 681.453 387.469 681.179 387.649L653.62 405.645L638.871 416.058L625.178 428.051L607.309 444.865L587.762 462.743L563.923 482.606C563.694 482.796 563.283 482.801 563.008 482.616C562.746 482.441 562.702 482.157 562.906 481.968L584.418 462.138L603.923 443.131L621.843 425.396L637.305 412.545L657.455 399.764L680.309 386.901Z" fill="url(#paint35_linear_75_93)" fill-opacity="0.2"/>
</g>
<path d="M361.482 604.46C379.897 610.885 382.172 621.019 398.374 626.782C389.807 627.036 377.389 632.489 363.912 634.941C341.873 638.95 322.823 625.569 314.056 614.342C303.674 601.047 347.229 599.488 361.482 604.46Z" fill="url(#paint36_linear_75_93)" fill-opacity="0.2"/>
<path d="M403.094 565.84C421.51 572.264 423.784 582.398 439.987 588.162C431.418 588.416 419.001 593.87 405.524 596.321C383.485 600.33 364.435 586.95 355.668 575.722C345.285 562.426 388.84 560.867 403.094 565.84Z" fill="url(#paint37_linear_75_93)" fill-opacity="0.2"/>
<path d="M357.261 661.163C371.792 645.148 383.274 647.261 396.175 633.22C392.778 642.091 393.128 657.177 389.912 672.03C384.654 696.321 362.636 709.937 347.246 713.983C329.021 718.775 346.013 673.558 357.261 661.163Z" fill="url(#paint38_linear_75_93)" fill-opacity="0.2"/>
<path d="M399.977 663.448C401.971 644.943 412.282 639.29 414.155 622.969C416.723 630.409 425.922 639.359 432.171 650.322C442.39 668.251 433.071 689.822 423.319 701.576C411.771 715.497 398.434 677.771 399.977 663.448Z" fill="url(#paint39_linear_75_93)" fill-opacity="0.2"/>
<path d="M447.742 635.37C443.897 617.205 452.063 609.089 448.783 593.037C453.573 599.449 465.217 605.546 474.647 614.343C490.069 628.727 487.816 651.754 482.089 665.538C475.307 681.861 450.717 649.431 447.742 635.37Z" fill="url(#paint40_linear_75_93)" fill-opacity="0.2"/>
<path d="M433.515 528.632C451.334 537.023 452.971 547.87 468.642 555.368C460.156 554.871 447.552 559.491 434.081 560.864C412.051 563.109 394.024 547.356 386.034 534.781C376.571 519.89 419.724 522.138 433.515 528.632Z" fill="url(#paint41_linear_75_93)" fill-opacity="0.2"/>
<path d="M433.651 528.619C451.47 537.01 453.107 547.857 468.778 555.356C460.292 554.859 447.687 559.479 434.216 560.852C412.187 563.096 394.16 547.343 386.169 534.768C376.706 519.877 419.859 522.126 433.651 528.619Z" fill="url(#paint42_linear_75_93)" fill-opacity="0.2"/>
<path d="M512.155 588.64C501.723 572.512 507.559 565.374 498.466 551.123C505.793 556.839 520.29 562.323 533.38 570.184C554.786 583.04 560.44 603.434 559.175 615.614C557.678 630.036 520.229 601.123 512.155 588.64Z" fill="url(#paint43_linear_75_93)" fill-opacity="0.2"/>
<path d="M397.396 630.484C397.137 630.683 396.753 630.675 396.488 630.465C396.165 630.211 396.142 629.765 396.436 629.504L425.978 603.388L441.771 588.339L456.385 571.178L475.432 547.191L496.278 521.656L521.741 493.176C521.985 492.903 522.432 492.875 522.735 493.114C523.022 493.34 523.076 493.727 522.858 493.996L499.92 522.31L479.144 549.39L460.061 574.644L443.544 593.073L421.937 611.65L397.396 630.484Z" fill="url(#paint44_linear_75_93)" fill-opacity="0.2"/>
<path d="M479.577 1024.4C466.059 1038.46 455.899 1036.3 443.904 1048.63C447.246 1040.74 447.468 1027.17 450.859 1013.9C456.406 992.2 476.511 980.465 490.372 977.177C506.785 973.286 490.04 1013.52 479.577 1024.4Z" fill="url(#paint45_linear_75_93)" fill-opacity="0.2"/>
<path d="M497.327 1078.33C483.809 1092.39 473.65 1090.23 461.655 1102.55C464.997 1094.66 465.217 1081.1 468.609 1067.83C474.155 1046.13 494.261 1034.39 508.122 1031.1C524.536 1027.21 507.791 1067.45 497.327 1078.33Z" fill="url(#paint46_linear_75_93)" fill-opacity="0.2"/>
<path d="M429.799 996.923C438.296 1016.81 431.588 1026.36 438.971 1043.94C432.324 1037.16 418.467 1031.18 406.307 1022.07C386.422 1007.16 383.227 981.47 385.968 965.795C389.212 947.231 423.224 981.531 429.799 996.923Z" fill="url(#paint47_linear_75_93)" fill-opacity="0.2"/>
<path d="M409.909 1034.79C425.897 1044.32 426.736 1056.05 440.789 1064.56C432.956 1063.79 420.985 1068.42 408.415 1069.53C387.859 1071.34 372.138 1053.88 365.521 1040.11C357.684 1023.81 397.535 1027.42 409.909 1034.79Z" fill="url(#paint48_linear_75_93)" fill-opacity="0.2"/>
<path d="M415.512 1089.92C433.627 1094 437.598 1104.8 453.555 1108.52C445.73 1110.2 435.333 1118.24 423.406 1123.14C403.9 1131.16 383.911 1119.51 373.77 1108.56C361.762 1095.59 401.492 1086.76 415.512 1089.92Z" fill="url(#paint49_linear_75_93)" fill-opacity="0.2"/>
<path d="M518.46 1121.5C503.403 1134.19 492.861 1131.16 479.512 1142.27C483.502 1134.77 484.559 1121.39 488.928 1108.57C496.074 1087.61 517.909 1077.79 532.671 1075.78C550.151 1073.38 530.113 1111.67 518.46 1121.5Z" fill="url(#paint50_linear_75_93)" fill-opacity="0.2"/>
<path d="M518.415 1121.62C503.358 1134.32 492.817 1131.29 479.467 1142.4C483.457 1134.9 484.514 1121.51 488.883 1108.7C496.029 1087.74 517.864 1077.92 532.626 1075.9C550.106 1073.51 530.068 1111.8 518.415 1121.62Z" fill="url(#paint51_linear_75_93)" fill-opacity="0.2"/>
<path d="M431.126 1167.95C450.135 1165.19 454.189 1173.47 470.933 1171.15C462.683 1175.43 451.653 1186.32 439.05 1194.94C418.439 1209.03 397.545 1205.67 387.002 1199.44C374.517 1192.06 416.413 1170.08 431.126 1167.95Z" fill="url(#paint52_linear_75_93)" fill-opacity="0.2"/>
<path d="M440.948 1046.2C440.875 1045.88 441.043 1045.53 441.344 1045.38C441.71 1045.19 442.125 1045.36 442.239 1045.73L453.658 1083.47L460.75 1104.1L470.253 1124.54L484.113 1151.86L498.629 1181.45L513.897 1216.47C514.044 1216.81 513.883 1217.22 513.539 1217.4C513.214 1217.57 512.84 1217.45 512.686 1217.14L496.516 1184.49L480.567 1154.31L465.571 1126.44L455.708 1103.74L447.832 1076.36L440.948 1046.2Z" fill="url(#paint53_linear_75_93)" fill-opacity="0.2"/>
</g>
<defs>
<linearGradient id="paint0_linear_75_93" x1="515.225" y1="220.692" x2="493.119" y2="206.963" gradientUnits="userSpaceOnUse">
<stop stop-color="#ADE194"/>
<stop offset="1" stop-color="#37723D"/>
</linearGradient>
<linearGradient id="paint1_linear_75_93" x1="494.2" y1="167.956" x2="472.093" y2="154.227" gradientUnits="userSpaceOnUse">
<stop stop-color="#ADE194"/>
<stop offset="1" stop-color="#37723D"/>
</linearGradient>
<linearGradient id="paint2_linear_75_93" x1="590.472" y1="221.553" x2="551.905" y2="175.968" gradientUnits="userSpaceOnUse">
<stop stop-color="#ADE194"/>
<stop offset="1" stop-color="#37723D"/>
</linearGradient>
<linearGradient id="paint3_linear_75_93" x1="602.691" y1="162.235" x2="575.681" y2="117.803" gradientUnits="userSpaceOnUse">
<stop stop-color="#ADE194"/>
<stop offset="1" stop-color="#37723D"/>
</linearGradient>
<linearGradient id="paint4_linear_75_93" x1="587.78" y1="106.267" x2="558.63" y2="65.1532" gradientUnits="userSpaceOnUse">
<stop stop-color="#ADE194"/>
<stop offset="1" stop-color="#37723D"/>
</linearGradient>
<linearGradient id="paint5_linear_75_93" x1="451.968" y1="83.9081" x2="500.41" y2="89.5007" gradientUnits="userSpaceOnUse">
<stop stop-color="#ADE194"/>
<stop offset="1" stop-color="#37723D"/>
</linearGradient>
<linearGradient id="paint6_linear_75_93" x1="470.992" y1="126.146" x2="447.193" y2="110.933" gradientUnits="userSpaceOnUse">
<stop stop-color="#ADE194"/>
<stop offset="1" stop-color="#37723D"/>
</linearGradient>
<linearGradient id="paint7_linear_75_93" x1="567.739" y1="23.0603" x2="539.936" y2="-5.53003" gradientUnits="userSpaceOnUse">
<stop stop-color="#ADE194"/>
<stop offset="1" stop-color="#37723D"/>
</linearGradient>
<linearGradient id="paint8_linear_75_93" x1="518.225" y1="26.9276" x2="492.622" y2="36.042" gradientUnits="userSpaceOnUse">
<stop stop-color="#2C5E2E"/>
<stop offset="0.488062" stop-color="#A2C866"/>
<stop offset="1" stop-color="#1F4A21"/>
</linearGradient>
<linearGradient id="paint9_linear_75_93" x1="1726.75" y1="947.914" x2="1747.92" y2="963.05" gradientUnits="userSpaceOnUse">
<stop stop-color="#ADE194"/>
<stop offset="1" stop-color="#37723D"/>
</linearGradient>
<linearGradient id="paint10_linear_75_93" x1="1744.3" y1="1001.9" x2="1765.47" y2="1017.04" gradientUnits="userSpaceOnUse">
<stop stop-color="#ADE194"/>
<stop offset="1" stop-color="#37723D"/>
</linearGradient>
<linearGradient id="paint11_linear_75_93" x1="1651.72" y1="942.168" x2="1687.24" y2="990.161" gradientUnits="userSpaceOnUse">
<stop stop-color="#ADE194"/>
<stop offset="1" stop-color="#37723D"/>
</linearGradient>
<linearGradient id="paint12_linear_75_93" x1="1635.67" y1="1000.57" x2="1659.74" y2="1046.66" gradientUnits="userSpaceOnUse">
<stop stop-color="#ADE194"/>
<stop offset="1" stop-color="#37723D"/>
</linearGradient>
<linearGradient id="paint13_linear_75_93" x1="1646.91" y1="1057.38" x2="1673.33" y2="1100.31" gradientUnits="userSpaceOnUse">
<stop stop-color="#ADE194"/>
<stop offset="1" stop-color="#37723D"/>
</linearGradient>
<linearGradient id="paint14_linear_75_93" x1="1780.99" y1="1088.52" x2="1733.01" y2="1079.79" gradientUnits="userSpaceOnUse">
<stop stop-color="#ADE194"/>
<stop offset="1" stop-color="#37723D"/>
</linearGradient>
<linearGradient id="paint15_linear_75_93" x1="1764.75" y1="1045.13" x2="1787.51" y2="1061.86" gradientUnits="userSpaceOnUse">
<stop stop-color="#ADE194"/>
<stop offset="1" stop-color="#37723D"/>
</linearGradient>
<linearGradient id="paint16_linear_75_93" x1="1661.51" y1="1141.72" x2="1687.4" y2="1172.05" gradientUnits="userSpaceOnUse">
<stop stop-color="#ADE194"/>
<stop offset="1" stop-color="#37723D"/>
</linearGradient>
<linearGradient id="paint17_linear_75_93" x1="1711.17" y1="1141.07" x2="1737.31" y2="1133.64" gradientUnits="userSpaceOnUse">
<stop stop-color="#2C5E2E"/>
<stop offset="0.488062" stop-color="#A2C866"/>
<stop offset="1" stop-color="#1F4A21"/>
</linearGradient>
<linearGradient id="paint18_linear_75_93" x1="1547.35" y1="88.8667" x2="1559.01" y2="65.5995" gradientUnits="userSpaceOnUse">
<stop stop-color="#ADE194"/>
<stop offset="1" stop-color="#37723D"/>
</linearGradient>
<linearGradient id="paint19_linear_75_93" x1="1597.95" y1="63.1166" x2="1609.6" y2="39.8494" gradientUnits="userSpaceOnUse">
<stop stop-color="#ADE194"/>
<stop offset="1" stop-color="#37723D"/>
</linearGradient>
<linearGradient id="paint20_linear_75_93" x1="1553.36" y1="163.878" x2="1595.24" y2="121.313" gradientUnits="userSpaceOnUse">
<stop stop-color="#ADE194"/>
<stop offset="1" stop-color="#37723D"/>
</linearGradient>
<linearGradient id="paint21_linear_75_93" x1="1613.55" y1="170.633" x2="1655.33" y2="139.682" gradientUnits="userSpaceOnUse">
<stop stop-color="#ADE194"/>
<stop offset="1" stop-color="#37723D"/>
</linearGradient>
<linearGradient id="paint22_linear_75_93" x1="1667.92" y1="150.678" x2="1706.2" y2="117.897" gradientUnits="userSpaceOnUse">
<stop stop-color="#ADE194"/>
<stop offset="1" stop-color="#37723D"/>
</linearGradient>
<linearGradient id="paint23_linear_75_93" x1="1677.79" y1="13.3917" x2="1676.64" y2="62.1418" gradientUnits="userSpaceOnUse">
<stop stop-color="#ADE194"/>
<stop offset="1" stop-color="#37723D"/>
</linearGradient>
<linearGradient id="paint24_linear_75_93" x1="1637.47" y1="36.1908" x2="1650.45" y2="11.1033" gradientUnits="userSpaceOnUse">
<stop stop-color="#ADE194"/>
<stop offset="1" stop-color="#37723D"/>
</linearGradient>
<linearGradient id="paint25_linear_75_93" x1="1748.95" y1="123.128" x2="1774.89" y2="92.8325" gradientUnits="userSpaceOnUse">
<stop stop-color="#ADE194"/>
<stop offset="1" stop-color="#37723D"/>
</linearGradient>
<linearGradient id="paint26_linear_75_93" x1="1740.58" y1="74.1722" x2="1729.17" y2="49.5078" gradientUnits="userSpaceOnUse">
<stop stop-color="#2C5E2E"/>
<stop offset="0.488062" stop-color="#A2C866"/>
<stop offset="1" stop-color="#1F4A21"/>
</linearGradient>
<linearGradient id="paint27_linear_75_93" x1="760.323" y1="396.457" x2="754.728" y2="421.871" gradientUnits="userSpaceOnUse">
<stop stop-color="#ADE194"/>
<stop offset="1" stop-color="#37723D"/>
</linearGradient>
<linearGradient id="paint28_linear_75_93" x1="717.584" y1="433.825" x2="711.989" y2="459.239" gradientUnits="userSpaceOnUse">
<stop stop-color="#ADE194"/>
<stop offset="1" stop-color="#37723D"/>
</linearGradient>
<linearGradient id="paint29_linear_75_93" x1="736.108" y1="325.207" x2="705.946" y2="376.739" gradientUnits="userSpaceOnUse">
<stop stop-color="#ADE194"/>
<stop offset="1" stop-color="#37723D"/>
</linearGradient>
<linearGradient id="paint30_linear_75_93" x1="676.104" y1="333.413" x2="643.184" y2="373.664" gradientUnits="userSpaceOnUse">
<stop stop-color="#ADE194"/>
<stop offset="1" stop-color="#37723D"/>
</linearGradient>
<linearGradient id="paint31_linear_75_93" x1="628.282" y1="366.09" x2="599.204" y2="407.255" gradientUnits="userSpaceOnUse">
<stop stop-color="#ADE194"/>
<stop offset="1" stop-color="#37723D"/>
</linearGradient>
<linearGradient id="paint32_linear_75_93" x1="652.367" y1="501.607" x2="641.529" y2="454.062" gradientUnits="userSpaceOnUse">
<stop stop-color="#ADE194"/>
<stop offset="1" stop-color="#37723D"/>
</linearGradient>
<linearGradient id="paint33_linear_75_93" x1="685.872" y1="469.617" x2="679.44" y2="497.12" gradientUnits="userSpaceOnUse">
<stop stop-color="#ADE194"/>
<stop offset="1" stop-color="#37723D"/>
</linearGradient>
<linearGradient id="paint34_linear_75_93" x1="556.478" y1="412.664" x2="538.762" y2="448.393" gradientUnits="userSpaceOnUse">
<stop stop-color="#ADE194"/>
<stop offset="1" stop-color="#37723D"/>
</linearGradient>
<linearGradient id="paint35_linear_75_93" x1="621.5" y1="418.417" x2="629.1" y2="430.281" gradientUnits="userSpaceOnUse">
<stop stop-color="#2C5E2E"/>
<stop offset="0.488062" stop-color="#A2C866"/>
<stop offset="1" stop-color="#1F4A21"/>
</linearGradient>
<linearGradient id="paint36_linear_75_93" x1="314.459" y1="626.11" x2="319.297" y2="600.541" gradientUnits="userSpaceOnUse">
<stop stop-color="#ADE194"/>
<stop offset="1" stop-color="#37723D"/>
</linearGradient>
<linearGradient id="paint37_linear_75_93" x1="356.071" y1="587.49" x2="360.909" y2="561.92" gradientUnits="userSpaceOnUse">
<stop stop-color="#ADE194"/>
<stop offset="1" stop-color="#37723D"/>
</linearGradient>
<linearGradient id="paint38_linear_75_93" x1="340.777" y1="696.609" x2="369.397" y2="644.204" gradientUnits="userSpaceOnUse">
<stop stop-color="#ADE194"/>
<stop offset="1" stop-color="#37723D"/>
</linearGradient>
<linearGradient id="paint39_linear_75_93" x1="400.512" y1="686.626" x2="432.223" y2="645.417" gradientUnits="userSpaceOnUse">
<stop stop-color="#ADE194"/>
<stop offset="1" stop-color="#37723D"/>
</linearGradient>
<linearGradient id="paint40_linear_75_93" x1="447.343" y1="652.546" x2="475.187" y2="610.536" gradientUnits="userSpaceOnUse">
<stop stop-color="#ADE194"/>
<stop offset="1" stop-color="#37723D"/>
</linearGradient>
<linearGradient id="paint41_linear_75_93" x1="419.249" y1="517.803" x2="431.492" y2="565.004" gradientUnits="userSpaceOnUse">
<stop stop-color="#ADE194"/>
<stop offset="1" stop-color="#37723D"/>
</linearGradient>
<linearGradient id="paint42_linear_75_93" x1="386.707" y1="550.772" x2="392.32" y2="523.09" gradientUnits="userSpaceOnUse">
<stop stop-color="#ADE194"/>
<stop offset="1" stop-color="#37723D"/>
</linearGradient>
<linearGradient id="paint43_linear_75_93" x1="517.734" y1="603.861" x2="534.382" y2="567.622" gradientUnits="userSpaceOnUse">
<stop stop-color="#ADE194"/>
<stop offset="1" stop-color="#37723D"/>
</linearGradient>
<linearGradient id="paint44_linear_75_93" x1="460.58" y1="584.192" x2="449.075" y2="570.937" gradientUnits="userSpaceOnUse">
<stop stop-color="#2C5E2E"/>
<stop offset="0.488062" stop-color="#A2C866"/>
<stop offset="1" stop-color="#1F4A21"/>
</linearGradient>
<linearGradient id="paint45_linear_75_93" x1="479.508" y1="972.637" x2="500.73" y2="987.697" gradientUnits="userSpaceOnUse">
<stop stop-color="#ADE194"/>
<stop offset="1" stop-color="#37723D"/>
</linearGradient>
<linearGradient id="paint46_linear_75_93" x1="497.258" y1="1026.56" x2="518.481" y2="1041.62" gradientUnits="userSpaceOnUse">
<stop stop-color="#ADE194"/>
<stop offset="1" stop-color="#37723D"/>
</linearGradient>
<linearGradient id="paint47_linear_75_93" x1="404.456" y1="967.16" x2="440.153" y2="1015.03" gradientUnits="userSpaceOnUse">
<stop stop-color="#ADE194"/>
<stop offset="1" stop-color="#37723D"/>
</linearGradient>
<linearGradient id="paint48_linear_75_93" x1="388.62" y1="1025.62" x2="412.852" y2="1071.62" gradientUnits="userSpaceOnUse">
<stop stop-color="#ADE194"/>
<stop offset="1" stop-color="#37723D"/>
</linearGradient>
<linearGradient id="paint49_linear_75_93" x1="400.068" y1="1082.39" x2="426.64" y2="1125.22" gradientUnits="userSpaceOnUse">
<stop stop-color="#ADE194"/>
<stop offset="1" stop-color="#37723D"/>
</linearGradient>
<linearGradient id="paint50_linear_75_93" x1="534.252" y1="1113.04" x2="486.245" y2="1104.49" gradientUnits="userSpaceOnUse">
<stop stop-color="#ADE194"/>
<stop offset="1" stop-color="#37723D"/>
</linearGradient>
<linearGradient id="paint51_linear_75_93" x1="517.855" y1="1069.72" x2="540.675" y2="1086.36" gradientUnits="userSpaceOnUse">
<stop stop-color="#ADE194"/>
<stop offset="1" stop-color="#37723D"/>
</linearGradient>
<linearGradient id="paint52_linear_75_93" x1="414.964" y1="1166.67" x2="440.96" y2="1196.92" gradientUnits="userSpaceOnUse">
<stop stop-color="#ADE194"/>
<stop offset="1" stop-color="#37723D"/>
</linearGradient>
<linearGradient id="paint53_linear_75_93" x1="456.676" y1="1122.93" x2="473.521" y2="1118" gradientUnits="userSpaceOnUse">
<stop stop-color="#2C5E2E"/>
<stop offset="0.488062" stop-color="#A2C866"/>
<stop offset="1" stop-color="#1F4A21"/>
</linearGradient>
<clipPath id="clip0_75_93">
<rect width="1800" height="1203" fill="white"/>
</clipPath>
<clipPath id="clip1_75_93">
<rect width="118.825" height="109.008" fill="white" transform="matrix(0.997555 0.0698927 0.0698927 -0.997555 559 485)"/>
</clipPath>
</defs>
</svg>
